<svg xmlns="http://www.w3.org/2000/svg" version="1.1" xmlns:xlink="http://www.w3.org/1999/xlink" xmlns:svgjs="http://svgjs.dev/svgjs" width="2000" height="702" viewBox="0 0 2000 702"><g transform="matrix(1,0,0,1,-1.2121212121212466,-0.27313290793398437)"><svg viewBox="0 0 396 139" data-background-color="#ffffff" preserveAspectRatio="xMidYMid meet" height="702" width="2000" xmlns="http://www.w3.org/2000/svg" xmlns:xlink="http://www.w3.org/1999/xlink"><g id="tight-bounds" transform="matrix(1,0,0,1,0.2400000000000091,0.054081872083799)"><svg viewBox="0 0 395.52 138.8918362558324" height="138.8918362558324" width="395.52"><g><svg viewBox="0 0 395.52 138.8918362558324" height="138.8918362558324" width="395.52"><g transform="matrix(1,0,0,1,0,73.81809280302352)"><svg viewBox="0 0 395.52 65.07374345280887" height="65.07374345280887" width="395.52"><g id="textblocktransform"><svg viewBox="0 0 395.52 65.07374345280887" height="65.07374345280887" width="395.52" id="textblock"><g><svg viewBox="0 0 395.52 65.07374345280887" height="65.07374345280887" width="395.52"><g transform="matrix(1,0,0,1,0,0)"><svg width="395.52" viewBox="3.91 -38.38 237.70000000000002 39.11" height="65.07374345280887" data-palette-color="#f2c802"><g class="wordmark-text-0" data-fill-palette-color="primary" id="text-0"><path d="M17.43 0L9.94 0Q7.42 0 6.12-0.63 4.81-1.27 4.36-2.71 3.91-4.15 3.91-6.54L3.91-6.54 3.91-28.47Q3.91-30.91 4.36-32.34 4.81-33.76 6.12-34.39 7.42-35.01 9.94-35.01L9.94-35.01 17.43-35.01Q22.68-35.01 26.62-33.45 30.57-31.88 32.76-28.16 34.96-24.44 34.96-17.94L34.96-17.94Q34.96-11.45 32.76-7.51 30.57-3.56 26.62-1.78 22.68 0 17.43 0L17.43 0ZM15.65-28.59L14.58-28.59Q12.96-28.59 12.38-27.91 11.79-27.22 11.79-25.56L11.79-25.56 11.79-9.45Q11.79-7.81 12.38-7.1 12.96-6.4 14.58-6.4L14.58-6.4 15.7-6.4Q20.92-6.4 23.79-8.96 26.66-11.52 26.66-17.85L26.66-17.85Q26.66-22.07 25.35-24.4 24.05-26.73 21.58-27.66 19.12-28.59 15.65-28.59L15.65-28.59ZM52.71 0.61L52.71 0.61Q48.58 0.61 45.53-0.72 42.48-2.05 40.79-4.86 39.11-7.67 39.11-12.11L39.11-12.11Q39.11-18.77 42.53-22.19 45.94-25.61 51.61-25.61L51.61-25.61Q55.3-25.61 57.85-24.29 60.4-22.97 61.73-20.65 63.06-18.33 63.06-15.36L63.06-15.36Q63.06-12.45 61.57-11.3 60.08-10.16 57.22-10.16L57.22-10.16 46.75-10.16Q46.95-7.64 48.59-6.32 50.24-5 53.07-5L53.07-5Q55.32-5 56.67-5.68 58.03-6.35 58.57-6.74L58.57-6.74Q59.03-7.08 59.62-7.06L59.62-7.06Q60.08-7.06 60.95-6.87 61.81-6.69 62.67-6.2L62.67-6.2Q63.28-5.88 63.28-5.32L63.28-5.32Q63.28-5 63.16-4.42L63.16-4.42Q63.08-4.08 62.91-3.43 62.74-2.78 62.47-2.22L62.47-2.22Q62.33-1.95 62.01-1.71L62.01-1.71Q61.52-1.37 60.43-0.81 59.35-0.24 57.47 0.18 55.59 0.61 52.71 0.61ZM46.7-15.16L46.7-15.16 54.66-15.16Q55.91-15.16 55.91-16.31L55.91-16.31Q55.91-18.04 54.82-19.23 53.73-20.41 51.56-20.41L51.56-20.41Q49.19-20.41 48.08-18.9 46.97-17.38 46.7-15.16ZM76.73-1.83L71.63 0.51Q71.11 0.73 70.89 0.73L70.89 0.73Q70.67 0.73 70.43 0.56L70.43 0.56Q69.87 0.17 69.15-1.35 68.43-2.88 68.43-6.05L68.43-6.05 68.43-34.33Q68.43-34.91 68.67-35.23L68.67-35.23Q69.7-36.57 71.67-38.13L71.67-38.13Q72.02-38.38 72.29-38.38L72.29-38.38Q72.6-38.38 72.9-38.13L72.9-38.13Q73.95-37.33 74.67-36.62 75.39-35.91 75.9-35.23L75.9-35.23Q76.14-34.91 76.14-34.33L76.14-34.33 76.14-7.54Q76.14-5.93 76.41-4.8 76.68-3.66 77.05-2.98L77.05-2.98Q77.46-2.17 76.73-1.83L76.73-1.83ZM81.71-33.2L81.71-33.2Q81.71-33.52 81.9-33.76 82.1-34.01 82.41-34.4L82.41-34.4Q83.1-35.18 84-36.05 84.9-36.91 85.83-37.72L85.83-37.72Q86.42-38.18 86.71-38.18L86.71-38.18Q87-38.18 87.61-37.72L87.61-37.72Q89.59-36.01 90.98-34.4L90.98-34.4Q91.3-34.03 91.51-33.78 91.72-33.52 91.72-33.2L91.72-33.2Q91.72-32.89 91.51-32.64 91.3-32.4 90.96-31.98L90.96-31.98Q90.3-31.23 89.42-30.36 88.54-29.49 87.61-28.71L87.61-28.71Q87.27-28.42 87.08-28.33 86.88-28.25 86.71-28.25L86.71-28.25Q86.54-28.25 86.36-28.33 86.17-28.42 85.78-28.71L85.78-28.71Q84.81-29.49 83.95-30.36 83.1-31.23 82.41-32.03L82.41-32.03Q82.1-32.42 81.9-32.65 81.71-32.89 81.71-33.2ZM90.54-23.71L90.54-1.29Q90.54-0.56 90.24-0.28 89.93 0 89.2 0L89.2 0 84.17 0Q83.44 0 83.13-0.28 82.83-0.56 82.83-1.29L82.83-1.29 82.83-23.71Q82.83-24.44 83.13-24.72 83.44-25 84.17-25L84.17-25 89.2-25Q89.93-25 90.24-24.72 90.54-24.44 90.54-23.71L90.54-23.71ZM102.46-2.27L102.46-2.27Q101.11-4.39 99.81-7.17 98.5-9.94 97.44-12.78 96.38-15.63 95.74-17.98 95.11-20.34 95.11-21.61L95.11-21.61Q95.11-22.09 95.38-22.41L95.38-22.41Q96.5-23.8 98.57-25.32L98.57-25.32Q98.94-25.56 99.23-25.56L99.23-25.56Q99.55-25.56 99.89-25.32L99.89-25.32Q101.02-24.51 101.78-23.8 102.55-23.1 103.09-22.41L103.09-22.41Q103.36-22.09 103.36-21.51L103.36-21.51 103.36-21.63Q103.36-20.04 103.93-17.47 104.51-14.89 105.51-12.04 106.51-9.18 107.83-6.79L107.83-6.79 107.95-6.79Q109.05-8.59 109.9-10.69 110.76-12.79 111.34-14.89 111.93-16.99 112.23-18.75 112.54-20.51 112.54-21.61L112.54-21.61 112.54-21.51Q112.54-22.09 112.78-22.41L112.78-22.41Q113.34-23.1 114.1-23.8 114.86-24.51 115.93-25.32L115.93-25.32Q116.27-25.56 116.57-25.56L116.57-25.56Q116.91-25.56 117.2-25.32L117.2-25.32Q118.3-24.51 119.06-23.8 119.81-23.1 120.35-22.41L120.35-22.41Q120.6-22.09 120.6-21.56L120.6-21.56Q120.57-20.24 119.91-17.86 119.25-15.48 118.14-12.63 117.03-9.79 115.66-7.04 114.3-4.3 112.88-2.27L112.88-2.27Q112.03-1.03 111.34-0.51 110.66 0 108.97 0L108.97 0 106.39 0Q104.63 0 103.96-0.49 103.29-0.98 102.46-2.27ZM95.11-21.51L95.11-21.63 95.11-21.61Q95.11-21.56 95.11-21.51L95.11-21.51ZM120.6-21.61L120.6-21.61 120.6-21.51 120.6-21.56Q120.6-21.58 120.6-21.61ZM137.37 0.61L137.37 0.61Q133.24 0.61 130.19-0.72 127.14-2.05 125.45-4.86 123.77-7.67 123.77-12.11L123.77-12.11Q123.77-18.77 127.18-22.19 130.6-25.61 136.27-25.61L136.27-25.61Q139.95-25.61 142.5-24.29 145.06-22.97 146.39-20.65 147.72-18.33 147.72-15.36L147.72-15.36Q147.72-12.45 146.23-11.3 144.74-10.16 141.88-10.16L141.88-10.16 131.41-10.16Q131.6-7.64 133.25-6.32 134.9-5 137.73-5L137.73-5Q139.98-5 141.33-5.68 142.69-6.35 143.22-6.74L143.22-6.74Q143.69-7.08 144.27-7.06L144.27-7.06Q144.74-7.06 145.61-6.87 146.47-6.69 147.33-6.2L147.33-6.2Q147.94-5.88 147.94-5.32L147.94-5.32Q147.94-5 147.81-4.42L147.81-4.42Q147.74-4.08 147.57-3.43 147.4-2.78 147.13-2.22L147.13-2.22Q146.98-1.95 146.67-1.71L146.67-1.71Q146.18-1.37 145.09-0.81 144.01-0.24 142.13 0.18 140.25 0.61 137.37 0.61ZM131.36-15.16L131.36-15.16 139.32-15.16Q140.56-15.16 140.56-16.31L140.56-16.31Q140.56-18.04 139.48-19.23 138.39-20.41 136.22-20.41L136.22-20.41Q133.85-20.41 132.74-18.9 131.63-17.38 131.36-15.16ZM167.15 0L159.73 0Q157.21 0 155.91-0.63 154.6-1.27 154.15-2.71 153.7-4.15 153.7-6.54L153.7-6.54 153.7-28.47Q153.7-30.91 154.15-32.34 154.6-33.76 155.91-34.39 157.21-35.01 159.73-35.01L159.73-35.01 166.44-35.01Q172.3-35.01 175.45-32.86 178.6-30.71 178.6-26.81L178.6-26.81Q178.6-24.88 177.72-23.29 176.84-21.7 175.41-20.58 173.98-19.46 172.3-18.9L172.3-18.9 172.3-18.8Q174.45-18.51 176.18-17.4 177.91-16.28 178.95-14.51 179.99-12.74 179.99-10.45L179.99-10.45Q179.99-7.03 178.34-4.7 176.69-2.37 173.8-1.18 170.91 0 167.15 0L167.15 0ZM161.58-26.17L161.58-8.86Q161.58-7.23 162.17-6.52 162.75-5.81 164.36-5.81L164.36-5.81 166.22-5.81Q168.69-5.81 170.19-7.08 171.69-8.35 171.69-10.55L171.69-10.55Q171.69-12.65 170.22-13.84 168.76-15.04 166.44-15.04L166.44-15.04 166.46-15.04Q165.88-15.04 165.59-15.21L165.59-15.21Q164.95-15.63 164.28-16.17 163.61-16.72 162.83-17.5L162.83-17.5Q162.58-17.82 162.58-17.97L162.58-17.97Q162.58-18.16 162.83-18.43L162.83-18.43Q163.61-19.21 164.28-19.78 164.95-20.34 165.59-20.73L165.59-20.73Q165.93-20.9 166.46-20.9L166.46-20.9 166.44-20.9Q167.88-20.9 169.09-21.97 170.3-23.05 170.3-25.34L170.3-25.34Q170.3-27.66 169-28.43 167.71-29.2 165.68-29.2L165.68-29.2 164.36-29.2Q162.75-29.2 162.17-28.52 161.58-27.83 161.58-26.17L161.58-26.17ZM197.22 0.61L197.22 0.61Q191.07 0.61 187.48-2.66 183.89-5.93 183.89-12.4L183.89-12.4Q183.89-19.04 187.62-22.33 191.34-25.61 197.57-25.61L197.57-25.61Q203.57-25.61 207.18-22.38 210.8-19.14 210.8-12.84L210.8-12.84Q210.8-6.27 207.18-2.83 203.57 0.61 197.22 0.61ZM197.47-5.3L197.47-5.3Q200.15-5.3 201.52-6.97 202.89-8.64 202.89-12.7L202.89-12.7Q202.89-16.55 201.51-18.13 200.13-19.7 197.42-19.7L197.42-19.7Q194.81-19.7 193.31-18.01 191.8-16.31 191.8-12.5L191.8-12.5Q191.8-8.52 193.23-6.91 194.66-5.3 197.47-5.3ZM228.03 0.61L228.03 0.61Q221.88 0.61 218.29-2.66 214.7-5.93 214.7-12.4L214.7-12.4Q214.7-19.04 218.42-22.33 222.15-25.61 228.37-25.61L228.37-25.61Q234.38-25.61 237.99-22.38 241.61-19.14 241.61-12.84L241.61-12.84Q241.61-6.27 237.99-2.83 234.38 0.61 228.03 0.61ZM228.28-5.3L228.28-5.3Q230.96-5.3 232.33-6.97 233.7-8.64 233.7-12.7L233.7-12.7Q233.7-16.55 232.32-18.13 230.94-19.7 228.23-19.7L228.23-19.7Q225.61-19.7 224.11-18.01 222.61-16.31 222.61-12.5L222.61-12.5Q222.61-8.52 224.04-6.91 225.47-5.3 228.28-5.3Z" fill="#f2c802" data-fill-palette-color="primary"></path></g></svg></g></svg></g></svg></g></svg></g><g transform="matrix(1,0,0,1,168.98288816190615,0)"><svg viewBox="0 0 57.5542236761877 58.45574374365822" height="58.45574374365822" width="57.5542236761877"><g><svg xmlns="http://www.w3.org/2000/svg" xmlns:xlink="http://www.w3.org/1999/xlink" version="1.1" x="0" y="0" viewBox="17.99629590187525 17.494995099999997 64.00740809368753 65.01000979999998" style="enable-background:new 0 0 100 100;" xml:space="preserve" height="58.45574374365822" width="57.5542236761877" class="icon-icon-0" data-fill-palette-color="accent" id="icon-0"><path d="M81.149 44.265c1.11-3.88 1.14-7.82 0.08-11.11-1.09-3.43-3.23-5.76-6.02-6.56-2.58-0.73-5.48-0.03-8.06 1.97-0.72 0.55-1.88 0.22-2.25-0.6-2.92-6.46-8.63-10.47-14.9-10.47-6.27 0-11.98 4.01-14.9 10.47-0.37 0.82-1.53 1.15-2.25 0.6-2.58-2-5.48-2.7-8.06-1.97-2.78 0.8-4.93 3.13-6.02 6.56-1.06 3.29-1.03 7.23 0.09 11.13 0.43 1.51 0.6 2.98 0.5 4.36l-1.2 16.3c-0.06 0.81 0.22 1.62 0.77 2.21 0.56 0.6 1.34 0.94 2.16 0.94h5.19c0.52 0 0.94 0.42 0.94 0.94v4.21c0 1.62 1.31 2.94 2.93 2.94h7.44c0.52 0 0.94 0.42 0.94 0.94 0 2.97 2.41 5.38 5.38 5.38 0.88 0 1.72-0.21 2.51-0.63l0.28-0.15c2.02-1.07 4.58-1.07 6.6 0l0.28 0.15c0.79 0.42 1.63 0.63 2.51 0.63 2.97 0 5.38-2.41 5.38-5.38 0-0.52 0.42-0.94 0.94-0.94h7.44c1.62 0 2.93-1.32 2.93-2.94v-4.21c0-0.52 0.42-0.94 0.94-0.94h5.19c0.82 0 1.6-0.34 2.16-0.94 0.55-0.59 0.83-1.4 0.77-2.21l-1.2-16.3C80.539 47.265 80.709 45.795 81.149 44.265zM46.989 40.655l-0.04 0.89-0.9 0.05c0 0-0.09 0.01-0.25 0.01-0.97 0-3.38-0.18-5-1.8-1.95-1.95-1.8-5.12-1.79-5.25l0.04-0.89 0.9-0.06c0 0 0.09 0 0.25 0 0.97 0 3.39 0.17 5.01 1.79C47.149 37.345 46.999 40.525 46.989 40.655zM59.209 39.805c-1.63 1.62-4.04 1.8-5.01 1.8-0.16 0-0.25-0.01-0.25-0.01l-0.89-0.05-0.05-0.89c-0.01-0.13-0.16-3.31 1.79-5.26 1.61-1.62 4.03-1.79 5-1.79 0.16 0 0.25 0 0.25 0l0.89 0.06 0.05 0.89C60.999 34.685 61.149 37.855 59.209 39.805z" fill="#f2c802" data-fill-palette-color="accent"></path></svg></g></svg></g><g></g></svg></g><defs></defs></svg><rect width="395.52" height="138.8918362558324" fill="none" stroke="none" visibility="hidden"></rect></g></svg></g></svg>