<svg xmlns="http://www.w3.org/2000/svg" version="1.1" xmlns:xlink="http://www.w3.org/1999/xlink" xmlns:svgjs="http://svgjs.dev/svgjs" width="128" height="128" viewBox="0 0 128 128"><g transform="matrix(0.8046875,0,0,0.8046875,12.504304520869539,12.360446011513154)"><svg viewBox="0 0 94 95" data-background-color="#ffffff" preserveAspectRatio="xMidYMid meet" height="129" width="128" xmlns="http://www.w3.org/2000/svg" xmlns:xlink="http://www.w3.org/1999/xlink"><g id="tight-bounds" transform="matrix(1,0,0,1,-0.003928397686763674,-0.24049999999999727)"><svg viewBox="0 0 94.0084665576128 95.481" height="95.481" width="94.0084665576128"><g><svg viewBox="0 0 94.0084665576128 95.481" height="95.481" width="94.0084665576128"><g><svg viewBox="0 0 94.0084665576128 95.481" height="95.481" width="94.0084665576128"><g id="textblocktransform"><svg viewBox="0 0 94.0084665576128 95.481" height="95.481" width="94.0084665576128" id="textblock"><g><svg viewBox="0 0 94.0084665576128 95.481" height="95.481" width="94.0084665576128"><g><svg viewBox="0 0 94.0084665576128 95.481" height="95.481" width="94.0084665576128"><g><svg xmlns="http://www.w3.org/2000/svg" xmlns:xlink="http://www.w3.org/1999/xlink" version="1.1" x="0" y="0" viewBox="17.99629590187525 17.494995099999997 64.00740809368753 65.01000979999998" style="enable-background:new 0 0 100 100;" xml:space="preserve" height="95.481" width="94.0084665576128" class="icon-icon-0" data-fill-palette-color="accent" id="icon-0"><path d="M81.149 44.265c1.11-3.88 1.14-7.82 0.08-11.11-1.09-3.43-3.23-5.76-6.02-6.56-2.58-0.73-5.48-0.03-8.06 1.97-0.72 0.55-1.88 0.22-2.25-0.6-2.92-6.46-8.63-10.47-14.9-10.47-6.27 0-11.98 4.01-14.9 10.47-0.37 0.82-1.53 1.15-2.25 0.6-2.58-2-5.48-2.7-8.06-1.97-2.78 0.8-4.93 3.13-6.02 6.56-1.06 3.29-1.03 7.23 0.09 11.13 0.43 1.51 0.6 2.98 0.5 4.36l-1.2 16.3c-0.06 0.81 0.22 1.62 0.77 2.21 0.56 0.6 1.34 0.94 2.16 0.94h5.19c0.52 0 0.94 0.42 0.94 0.94v4.21c0 1.62 1.31 2.94 2.93 2.94h7.44c0.52 0 0.94 0.42 0.94 0.94 0 2.97 2.41 5.38 5.38 5.38 0.88 0 1.72-0.21 2.51-0.63l0.28-0.15c2.02-1.07 4.58-1.07 6.6 0l0.28 0.15c0.79 0.42 1.63 0.63 2.51 0.63 2.97 0 5.38-2.41 5.38-5.38 0-0.52 0.42-0.94 0.94-0.94h7.44c1.62 0 2.93-1.32 2.93-2.94v-4.21c0-0.52 0.42-0.94 0.94-0.94h5.19c0.82 0 1.6-0.34 2.16-0.94 0.55-0.59 0.83-1.4 0.77-2.21l-1.2-16.3C80.539 47.265 80.709 45.795 81.149 44.265zM46.989 40.655l-0.04 0.89-0.9 0.05c0 0-0.09 0.01-0.25 0.01-0.97 0-3.38-0.18-5-1.8-1.95-1.95-1.8-5.12-1.79-5.25l0.04-0.89 0.9-0.06c0 0 0.09 0 0.25 0 0.97 0 3.39 0.17 5.01 1.79C47.149 37.345 46.999 40.525 46.989 40.655zM59.209 39.805c-1.63 1.62-4.04 1.8-5.01 1.8-0.16 0-0.25-0.01-0.25-0.01l-0.89-0.05-0.05-0.89c-0.01-0.13-0.16-3.31 1.79-5.26 1.61-1.62 4.03-1.79 5-1.79 0.16 0 0.25 0 0.25 0l0.89 0.06 0.05 0.89C60.999 34.685 61.149 37.855 59.209 39.805z" fill="#f2c802" data-fill-palette-color="accent"></path></svg></g></svg></g></svg></g></svg></g></svg></g><g></g></svg></g><defs></defs></svg><rect width="94.0084665576128" height="95.481" fill="none" stroke="none" visibility="hidden"></rect></g></svg></g></svg>